    <svg width="800" height="600" viewBox="0 0 800 600" xmlns="http://www.w3.org/2000/svg">
  <defs>
    <!-- Gradients -->
    <linearGradient id="primary-grad" x1="0%" y1="0%" x2="100%" y2="100%">
      <stop offset="0%" stop-color="#ffffff" stop-opacity="0.9"/>
      <stop offset="100%" stop-color="#a1a1aa" stop-opacity="0.2"/>
    </linearGradient>
    <linearGradient id="accent-grad" x1="0%" y1="0%" x2="100%" y2="100%">
      <stop offset="0%" stop-color="#00e5ff" stop-opacity="0.8"/>
      <stop offset="100%" stop-color="#0066ff" stop-opacity="0.2"/>
    </linearGradient>
    <linearGradient id="glass-grad" x1="0%" y1="0%" x2="100%" y2="100%">
      <stop offset="0%" stop-color="#ffffff" stop-opacity="0.15"/>
      <stop offset="100%" stop-color="#ffffff" stop-opacity="0.02"/>
    </linearGradient>
    <linearGradient id="glass-border" x1="0%" y1="0%" x2="100%" y2="100%">
      <stop offset="0%" stop-color="#ffffff" stop-opacity="0.4"/>
      <stop offset="100%" stop-color="#ffffff" stop-opacity="0.0"/>
    </linearGradient>
    <!-- Filters -->
    <filter id="glow" x="-20%" y="-20%" width="140%" height="140%">
      <feGaussianBlur stdDeviation="12" result="blur" />
      <feComposite in="SourceGraphic" in2="blur" operator="over" />
    </filter>
    <filter id="glow-strong" x="-30%" y="-30%" width="160%" height="160%">
      <feGaussianBlur stdDeviation="24" result="blur" />
      <feComposite in="SourceGraphic" in2="blur" operator="over" />
    </filter>
    <filter id="glass-blur" x="-10%" y="-10%" width="120%" height="120%">
      <feGaussianBlur stdDeviation="16" />
      <feColorMatrix type="matrix" values="1 0 0 0 0  0 1 0 0 0  0 0 1 0 0  0 0 0 18 -7" result="goo" />
      <feComposite in="SourceGraphic" in2="goo" operator="atop"/>
    </filter>
  </defs>
      <!-- Background ambient glow -->
      <circle cx="400" cy="300" r="250" fill="#00e5ff" opacity="0.05" filter="url(#glow-strong)" />
      <circle cx="550" cy="200" r="200" fill="#7800ff" opacity="0.04" filter="url(#glow-strong)" />
      <!-- Back floating element -->
      <g transform="translate(150, 150) rotate(-5)" filter="url(#glass-blur)">
        <rect x="0" y="0" width="300" height="200" rx="20" fill="url(#glass-grad)" stroke="url(#glass-border)" stroke-width="1.5" opacity="0.6"/>
        <line x1="40" y1="50" x2="200" y2="50" stroke="#ffffff" stroke-opacity="0.2" stroke-width="4" stroke-linecap="round" />
        <line x1="40" y1="80" x2="260" y2="80" stroke="#ffffff" stroke-opacity="0.1" stroke-width="4" stroke-linecap="round" />
        <line x1="40" y1="110" x2="180" y2="110" stroke="#ffffff" stroke-opacity="0.1" stroke-width="4" stroke-linecap="round" />
      </g>
      <!-- Connecting lines -->
      <path d="M 350 250 Q 500 150 600 280 T 650 450" fill="none" stroke="url(#accent-grad)" stroke-width="2" stroke-dasharray="4 8" opacity="0.6" filter="url(#glow)">
        <animate attributeName="stroke-dashoffset" from="120" to="0" dur="20s" linear infinite />
      </path>
      <!-- Main foreground floating element -->
      <g transform="translate(250, 220) rotate(2)" filter="url(#glass-blur)">
        <rect x="0" y="0" width="380" height="260" rx="24" fill="url(#glass-grad)" stroke="url(#glass-border)" stroke-width="1.5" />
        <!-- Abstract UI inside main card -->
        <rect x="30" y="30" width="80" height="80" rx="16" fill="url(#accent-grad)" opacity="0.2" />
        <circle cx="70" cy="70" r="20" fill="url(#primary-grad)" />
        <rect x="130" y="40" width="180" height="12" rx="6" fill="url(#primary-grad)" opacity="0.8" />
        <rect x="130" y="70" width="140" height="8" rx="4" fill="#ffffff" opacity="0.3" />
        <rect x="130" y="90" width="200" height="8" rx="4" fill="#ffffff" opacity="0.1" />
        <!-- Chart representation -->
        <g transform="translate(30, 140)">
           <path d="M 0 80 L 40 50 L 80 65 L 120 30 L 160 45 L 200 10 L 240 25 L 280 0 L 320 15" fill="none" stroke="url(#accent-grad)" stroke-width="4" stroke-linecap="round" stroke-linejoin="round" filter="url(#glow)"/>
           <path d="M 0 80 L 40 50 L 80 65 L 120 30 L 160 45 L 200 10 L 240 25 L 280 0 L 320 15 L 320 90 L 0 90 Z" fill="url(#accent-grad)" opacity="0.1"/>
        </g>
      </g>
      <!-- Floating Nodes -->
  <g transform="translate(120, 380)">
    <circle cx="0" cy="0" r="15" fill="#00e5ff" opacity="0.15" filter="url(#glow)">
        <animate attributeName="opacity" values="0.15;0.35;0.15" dur="4s" begin="0s" repeatCount="indefinite" />
    </circle>
    <circle cx="0" cy="0" r="6" fill="#00e5ff" opacity="0.8">
        <animate attributeName="r" values="6;7.199999999999999;6" dur="4s" begin="0s" repeatCount="indefinite" />
    </circle>
  </g>
  <g transform="translate(650, 180)">
    <circle cx="0" cy="0" r="20" fill="#ffffff" opacity="0.15" filter="url(#glow)">
        <animate attributeName="opacity" values="0.15;0.35;0.15" dur="4s" begin="1s" repeatCount="indefinite" />
    </circle>
    <circle cx="0" cy="0" r="8" fill="#ffffff" opacity="0.8">
        <animate attributeName="r" values="8;9.6;8" dur="4s" begin="1s" repeatCount="indefinite" />
    </circle>
  </g>
  <g transform="translate(620, 480)">
    <circle cx="0" cy="0" r="12.5" fill="#00e5ff" opacity="0.15" filter="url(#glow)">
        <animate attributeName="opacity" values="0.15;0.35;0.15" dur="4s" begin="2s" repeatCount="indefinite" />
    </circle>
    <circle cx="0" cy="0" r="5" fill="#00e5ff" opacity="0.8">
        <animate attributeName="r" values="5;6;5" dur="4s" begin="2s" repeatCount="indefinite" />
    </circle>
  </g>
  <g transform="translate(200, 120)">
    <circle cx="0" cy="0" r="10" fill="#ffffff" opacity="0.15" filter="url(#glow)">
        <animate attributeName="opacity" values="0.15;0.35;0.15" dur="4s" begin="1.5s" repeatCount="indefinite" />
    </circle>
    <circle cx="0" cy="0" r="4" fill="#ffffff" opacity="0.8">
        <animate attributeName="r" values="4;4.8;4" dur="4s" begin="1.5s" repeatCount="indefinite" />
    </circle>
  </g>
    </svg>
