<svg width="800" height="450" viewBox="0 0 800 450" xmlns="http://www.w3.org/2000/svg">
    
  <defs>
    <linearGradient id="grad-bg" x1="0%" y1="0%" x2="100%" y2="100%">
      <stop offset="0%" stop-color="#081127" />
      <stop offset="100%" stop-color="#020617" />
    </linearGradient>
    <linearGradient id="grad-primary" x1="0%" y1="0%" x2="100%" y2="100%">
      <stop offset="0%" stop-color="#3aa0ff" />
      <stop offset="100%" stop-color="#0f8ff8" />
    </linearGradient>
    <linearGradient id="grad-accent" x1="0%" y1="0%" x2="100%" y2="100%">
      <stop offset="0%" stop-color="#59f3ff" />
      <stop offset="100%" stop-color="#0ea5e9" />
    </linearGradient>
    <linearGradient id="grad-purple" x1="0%" y1="0%" x2="100%" y2="100%">
      <stop offset="0%" stop-color="#c084fc" />
      <stop offset="100%" stop-color="#7c3aed" />
    </linearGradient>
    <linearGradient id="grad-emerald" x1="0%" y1="0%" x2="100%" y2="100%">
      <stop offset="0%" stop-color="#34d399" />
      <stop offset="100%" stop-color="#059669" />
    </linearGradient>
    <filter id="glow">
      <feGaussianBlur stdDeviation="12" result="coloredBlur"/>
      <feMerge>
        <feMergeNode in="coloredBlur"/>
        <feMergeNode in="SourceGraphic"/>
      </feMerge>
    </filter>
    <filter id="glow-sm">
      <feGaussianBlur stdDeviation="4" result="coloredBlur"/>
      <feMerge>
        <feMergeNode in="coloredBlur"/>
        <feMergeNode in="SourceGraphic"/>
      </feMerge>
    </filter>
  </defs>

    <!-- Base dark background with slight radial highlight -->
    <rect width="800" height="450" fill="url(#grad-bg)" />
    <circle cx="400" cy="225" r="300" fill="url(#grad-primary)" opacity="0.05" filter="url(#glow)"/>
    <line x1="0" y1="0" x2="0" y2="450" stroke="rgba(255,255,255,0.015)" stroke-width="1"/><line x1="40" y1="0" x2="40" y2="450" stroke="rgba(255,255,255,0.015)" stroke-width="1"/><line x1="80" y1="0" x2="80" y2="450" stroke="rgba(255,255,255,0.015)" stroke-width="1"/><line x1="120" y1="0" x2="120" y2="450" stroke="rgba(255,255,255,0.015)" stroke-width="1"/><line x1="160" y1="0" x2="160" y2="450" stroke="rgba(255,255,255,0.015)" stroke-width="1"/><line x1="200" y1="0" x2="200" y2="450" stroke="rgba(255,255,255,0.015)" stroke-width="1"/><line x1="240" y1="0" x2="240" y2="450" stroke="rgba(255,255,255,0.015)" stroke-width="1"/><line x1="280" y1="0" x2="280" y2="450" stroke="rgba(255,255,255,0.015)" stroke-width="1"/><line x1="320" y1="0" x2="320" y2="450" stroke="rgba(255,255,255,0.015)" stroke-width="1"/><line x1="360" y1="0" x2="360" y2="450" stroke="rgba(255,255,255,0.015)" stroke-width="1"/><line x1="400" y1="0" x2="400" y2="450" stroke="rgba(255,255,255,0.015)" stroke-width="1"/><line x1="440" y1="0" x2="440" y2="450" stroke="rgba(255,255,255,0.015)" stroke-width="1"/><line x1="480" y1="0" x2="480" y2="450" stroke="rgba(255,255,255,0.015)" stroke-width="1"/><line x1="520" y1="0" x2="520" y2="450" stroke="rgba(255,255,255,0.015)" stroke-width="1"/><line x1="560" y1="0" x2="560" y2="450" stroke="rgba(255,255,255,0.015)" stroke-width="1"/><line x1="600" y1="0" x2="600" y2="450" stroke="rgba(255,255,255,0.015)" stroke-width="1"/><line x1="640" y1="0" x2="640" y2="450" stroke="rgba(255,255,255,0.015)" stroke-width="1"/><line x1="680" y1="0" x2="680" y2="450" stroke="rgba(255,255,255,0.015)" stroke-width="1"/><line x1="720" y1="0" x2="720" y2="450" stroke="rgba(255,255,255,0.015)" stroke-width="1"/><line x1="760" y1="0" x2="760" y2="450" stroke="rgba(255,255,255,0.015)" stroke-width="1"/><line x1="800" y1="0" x2="800" y2="450" stroke="rgba(255,255,255,0.015)" stroke-width="1"/><line x1="0" y1="0" x2="800" y2="0" stroke="rgba(255,255,255,0.015)" stroke-width="1"/><line x1="0" y1="40" x2="800" y2="40" stroke="rgba(255,255,255,0.015)" stroke-width="1"/><line x1="0" y1="80" x2="800" y2="80" stroke="rgba(255,255,255,0.015)" stroke-width="1"/><line x1="0" y1="120" x2="800" y2="120" stroke="rgba(255,255,255,0.015)" stroke-width="1"/><line x1="0" y1="160" x2="800" y2="160" stroke="rgba(255,255,255,0.015)" stroke-width="1"/><line x1="0" y1="200" x2="800" y2="200" stroke="rgba(255,255,255,0.015)" stroke-width="1"/><line x1="0" y1="240" x2="800" y2="240" stroke="rgba(255,255,255,0.015)" stroke-width="1"/><line x1="0" y1="280" x2="800" y2="280" stroke="rgba(255,255,255,0.015)" stroke-width="1"/><line x1="0" y1="320" x2="800" y2="320" stroke="rgba(255,255,255,0.015)" stroke-width="1"/><line x1="0" y1="360" x2="800" y2="360" stroke="rgba(255,255,255,0.015)" stroke-width="1"/><line x1="0" y1="400" x2="800" y2="400" stroke="rgba(255,255,255,0.015)" stroke-width="1"/><line x1="0" y1="440" x2="800" y2="440" stroke="rgba(255,255,255,0.015)" stroke-width="1"/>
    <circle cx="438.659616771092" cy="239.94769483702123" r="0.7588745045516756" fill="rgba(89, 243, 255, 0.36771808735477307)"/><circle cx="765.8232033897551" cy="68.24383850543111" r="0.6138622318440291" fill="rgba(89, 243, 255, 0.3360649885100281)"/><circle cx="143.35377455651218" cy="306.60384797671037" r="1.8830139225340365" fill="rgba(89, 243, 255, 0.15523260639525274)"/><circle cx="724.5315639628097" cy="244.27459232317528" r="1.5008805599054036" fill="rgba(89, 243, 255, 0.154352059016463)"/><circle cx="327.894768829451" cy="365.41808032482413" r="1.700224057668219" fill="rgba(89, 243, 255, 0.5805387829532318)"/><circle cx="8.654996791495329" cy="81.10339460969716" r="1.8565423717154292" fill="rgba(89, 243, 255, 0.30167617101632216)"/><circle cx="549.8735603698202" cy="447.57593812993616" r="1.194619564271487" fill="rgba(89, 243, 255, 0.4929398211745958)"/><circle cx="234.88568832766958" cy="231.22910889764165" r="1.7097499418278186" fill="rgba(89, 243, 255, 0.1683473607092967)"/><circle cx="212.70767770739542" cy="445.0251250037946" r="1.9792873151377282" fill="rgba(89, 243, 255, 0.13382355348471234)"/><circle cx="627.8076312507008" cy="180.59515783930837" r="1.1528428354224278" fill="rgba(89, 243, 255, 0.41013373078888093)"/><circle cx="234.85896383230713" cy="10.049261598587778" r="1.2077345035615032" fill="rgba(89, 243, 255, 0.25950662941397973)"/><circle cx="557.0947271402111" cy="149.170663598831" r="1.5418372764307584" fill="rgba(89, 243, 255, 0.5187864185016785)"/><circle cx="249.31380069582792" cy="102.42904687504112" r="1.1284151291984732" fill="rgba(89, 243, 255, 0.4358736025521437)"/><circle cx="243.5185004565403" cy="249.79623947441928" r="0.718604487405143" fill="rgba(89, 243, 255, 0.4946542370299698)"/><circle cx="691.6879840333703" cy="345.6998255881114" r="1.7857347297786164" fill="rgba(89, 243, 255, 0.40789443905898726)"/><circle cx="467.2678780923569" cy="270.6200607203013" r="1.844674153975816" fill="rgba(89, 243, 255, 0.5415691268179305)"/><circle cx="110.74716005318325" cy="1.15950592389088" r="1.4479424669860186" fill="rgba(89, 243, 255, 0.21598316440593648)"/><circle cx="9.259376064905744" cy="165.2642765104261" r="0.8379879109746043" fill="rgba(89, 243, 255, 0.2865126026860638)"/><circle cx="115.48616966018272" cy="288.22057015260214" r="0.5203995437856814" fill="rgba(89, 243, 255, 0.5221555275516665)"/><circle cx="309.2878079612493" cy="186.26921429572144" r="0.7006510783861702" fill="rgba(89, 243, 255, 0.18610745702718537)"/><circle cx="60.412608642705656" cy="64.25039158806682" r="1.8360642482522382" fill="rgba(89, 243, 255, 0.3821315715511946)"/><circle cx="483.4625179923066" cy="54.88095148315628" r="1.2468033397864398" fill="rgba(89, 243, 255, 0.2588847155414239)"/><circle cx="4.9011408301611326" cy="434.62518387906056" r="1.2978274517023043" fill="rgba(89, 243, 255, 0.5933290788875522)"/><circle cx="3.5423716969912533" cy="306.2881167940404" r="0.6223669769197705" fill="rgba(89, 243, 255, 0.43550650279711856)"/><circle cx="268.760958740968" cy="110.50581848093034" r="0.8326229416537234" fill="rgba(89, 243, 255, 0.48182644671890973)"/><circle cx="784.0271954799093" cy="51.06320551420065" r="0.9228972232188704" fill="rgba(89, 243, 255, 0.3272999960120778)"/><circle cx="250.08472662146897" cy="346.3981683532464" r="1.692177600106288" fill="rgba(89, 243, 255, 0.4030961503605146)"/><circle cx="498.88113140493715" cy="166.07451556451713" r="1.8435344355535461" fill="rgba(89, 243, 255, 0.5375831101161008)"/><circle cx="126.09275908004207" cy="233.99145614223184" r="1.785149597145293" fill="rgba(89, 243, 255, 0.5256549793419112)"/><circle cx="264.17821280630346" cy="250.4765874669925" r="0.8545822918805351" fill="rgba(89, 243, 255, 0.5646024329391736)"/>
    <!-- Specific Content -->
    
  <!-- Hero Article -->
  <rect x="40" y="40" width="460" height="240" rx="16" fill="rgba(255,255,255,0.05)" stroke="rgba(255,255,255,0.1)"/>
  <rect x="40" y="40" width="460" height="140" fill="url(#grad-primary)" opacity="0.3" clip-path="inset(0 0 0 0 round 16px 16px 0 0)"/>
  <rect x="70" y="200" width="280" height="16" rx="8" fill="rgba(255,255,255,0.9)"/>
  <rect x="70" y="235" width="200" height="10" rx="5" fill="rgba(255,255,255,0.4)"/>
  <rect x="70" y="255" width="160" height="10" rx="5" fill="rgba(255,255,255,0.4)"/>
  
  <!-- Side Article 1 -->
  <rect x="520" y="40" width="240" height="180" rx="16" fill="rgba(255,255,255,0.03)" stroke="rgba(255,255,255,0.08)"/>
  <rect x="540" y="60" width="60" height="60" rx="12" fill="url(#grad-accent)" opacity="0.6"/>
  <rect x="540" y="140" width="180" height="12" rx="6" fill="rgba(255,255,255,0.7)"/>
  <rect x="540" y="165" width="120" height="10" rx="5" fill="rgba(255,255,255,0.3)"/>

  <!-- Side Article 2 -->
  <rect x="520" y="240" width="240" height="170" rx="16" fill="rgba(255,255,255,0.03)" stroke="rgba(255,255,255,0.08)"/>
  <rect x="540" y="260" width="180" height="12" rx="6" fill="rgba(255,255,255,0.7)"/>

  <!-- Bottom Article -->
  <rect x="40" y="300" width="460" height="110" rx="16" fill="rgba(255,255,255,0.03)" stroke="rgba(255,255,255,0.08)"/>
  <rect x="60" y="320" width="80" height="70" rx="12" fill="url(#grad-purple)" opacity="0.5"/>
  <rect x="160" y="330" width="200" height="12" rx="6" fill="rgba(255,255,255,0.7)"/>

  </svg>