<svg width="800" height="450" viewBox="0 0 800 450" xmlns="http://www.w3.org/2000/svg">
    
  <defs>
    <linearGradient id="grad-bg" x1="0%" y1="0%" x2="100%" y2="100%">
      <stop offset="0%" stop-color="#081127" />
      <stop offset="100%" stop-color="#020617" />
    </linearGradient>
    <linearGradient id="grad-primary" x1="0%" y1="0%" x2="100%" y2="100%">
      <stop offset="0%" stop-color="#3aa0ff" />
      <stop offset="100%" stop-color="#0f8ff8" />
    </linearGradient>
    <linearGradient id="grad-accent" x1="0%" y1="0%" x2="100%" y2="100%">
      <stop offset="0%" stop-color="#59f3ff" />
      <stop offset="100%" stop-color="#0ea5e9" />
    </linearGradient>
    <linearGradient id="grad-purple" x1="0%" y1="0%" x2="100%" y2="100%">
      <stop offset="0%" stop-color="#c084fc" />
      <stop offset="100%" stop-color="#7c3aed" />
    </linearGradient>
    <linearGradient id="grad-emerald" x1="0%" y1="0%" x2="100%" y2="100%">
      <stop offset="0%" stop-color="#34d399" />
      <stop offset="100%" stop-color="#059669" />
    </linearGradient>
    <filter id="glow">
      <feGaussianBlur stdDeviation="12" result="coloredBlur"/>
      <feMerge>
        <feMergeNode in="coloredBlur"/>
        <feMergeNode in="SourceGraphic"/>
      </feMerge>
    </filter>
    <filter id="glow-sm">
      <feGaussianBlur stdDeviation="4" result="coloredBlur"/>
      <feMerge>
        <feMergeNode in="coloredBlur"/>
        <feMergeNode in="SourceGraphic"/>
      </feMerge>
    </filter>
  </defs>

    <!-- Base dark background with slight radial highlight -->
    <rect width="800" height="450" fill="url(#grad-bg)" />
    <circle cx="400" cy="225" r="300" fill="url(#grad-primary)" opacity="0.05" filter="url(#glow)"/>
    <line x1="0" y1="0" x2="0" y2="450" stroke="rgba(255,255,255,0.015)" stroke-width="1"/><line x1="40" y1="0" x2="40" y2="450" stroke="rgba(255,255,255,0.015)" stroke-width="1"/><line x1="80" y1="0" x2="80" y2="450" stroke="rgba(255,255,255,0.015)" stroke-width="1"/><line x1="120" y1="0" x2="120" y2="450" stroke="rgba(255,255,255,0.015)" stroke-width="1"/><line x1="160" y1="0" x2="160" y2="450" stroke="rgba(255,255,255,0.015)" stroke-width="1"/><line x1="200" y1="0" x2="200" y2="450" stroke="rgba(255,255,255,0.015)" stroke-width="1"/><line x1="240" y1="0" x2="240" y2="450" stroke="rgba(255,255,255,0.015)" stroke-width="1"/><line x1="280" y1="0" x2="280" y2="450" stroke="rgba(255,255,255,0.015)" stroke-width="1"/><line x1="320" y1="0" x2="320" y2="450" stroke="rgba(255,255,255,0.015)" stroke-width="1"/><line x1="360" y1="0" x2="360" y2="450" stroke="rgba(255,255,255,0.015)" stroke-width="1"/><line x1="400" y1="0" x2="400" y2="450" stroke="rgba(255,255,255,0.015)" stroke-width="1"/><line x1="440" y1="0" x2="440" y2="450" stroke="rgba(255,255,255,0.015)" stroke-width="1"/><line x1="480" y1="0" x2="480" y2="450" stroke="rgba(255,255,255,0.015)" stroke-width="1"/><line x1="520" y1="0" x2="520" y2="450" stroke="rgba(255,255,255,0.015)" stroke-width="1"/><line x1="560" y1="0" x2="560" y2="450" stroke="rgba(255,255,255,0.015)" stroke-width="1"/><line x1="600" y1="0" x2="600" y2="450" stroke="rgba(255,255,255,0.015)" stroke-width="1"/><line x1="640" y1="0" x2="640" y2="450" stroke="rgba(255,255,255,0.015)" stroke-width="1"/><line x1="680" y1="0" x2="680" y2="450" stroke="rgba(255,255,255,0.015)" stroke-width="1"/><line x1="720" y1="0" x2="720" y2="450" stroke="rgba(255,255,255,0.015)" stroke-width="1"/><line x1="760" y1="0" x2="760" y2="450" stroke="rgba(255,255,255,0.015)" stroke-width="1"/><line x1="800" y1="0" x2="800" y2="450" stroke="rgba(255,255,255,0.015)" stroke-width="1"/><line x1="0" y1="0" x2="800" y2="0" stroke="rgba(255,255,255,0.015)" stroke-width="1"/><line x1="0" y1="40" x2="800" y2="40" stroke="rgba(255,255,255,0.015)" stroke-width="1"/><line x1="0" y1="80" x2="800" y2="80" stroke="rgba(255,255,255,0.015)" stroke-width="1"/><line x1="0" y1="120" x2="800" y2="120" stroke="rgba(255,255,255,0.015)" stroke-width="1"/><line x1="0" y1="160" x2="800" y2="160" stroke="rgba(255,255,255,0.015)" stroke-width="1"/><line x1="0" y1="200" x2="800" y2="200" stroke="rgba(255,255,255,0.015)" stroke-width="1"/><line x1="0" y1="240" x2="800" y2="240" stroke="rgba(255,255,255,0.015)" stroke-width="1"/><line x1="0" y1="280" x2="800" y2="280" stroke="rgba(255,255,255,0.015)" stroke-width="1"/><line x1="0" y1="320" x2="800" y2="320" stroke="rgba(255,255,255,0.015)" stroke-width="1"/><line x1="0" y1="360" x2="800" y2="360" stroke="rgba(255,255,255,0.015)" stroke-width="1"/><line x1="0" y1="400" x2="800" y2="400" stroke="rgba(255,255,255,0.015)" stroke-width="1"/><line x1="0" y1="440" x2="800" y2="440" stroke="rgba(255,255,255,0.015)" stroke-width="1"/>
    <circle cx="46.05928499612304" cy="263.11886390612034" r="1.580102706747751" fill="rgba(89, 243, 255, 0.42593933006187734)"/><circle cx="548.1922812236646" cy="448.28826587070444" r="1.5166664705165132" fill="rgba(89, 243, 255, 0.2398558665818872)"/><circle cx="12.13521137186202" cy="407.9123143153749" r="1.9151687210504715" fill="rgba(89, 243, 255, 0.22149769993253957)"/><circle cx="795.0117296865061" cy="120.15494490787712" r="0.7696556292159537" fill="rgba(89, 243, 255, 0.41493388381254503)"/><circle cx="504.85526871574" cy="239.81429822431647" r="0.672686553975246" fill="rgba(89, 243, 255, 0.48013472214968167)"/><circle cx="34.23326804442404" cy="85.63155978953446" r="1.3807542333876928" fill="rgba(89, 243, 255, 0.15126933680176827)"/><circle cx="264.4492003843858" cy="185.16174796176293" r="1.5930862775537027" fill="rgba(89, 243, 255, 0.35496955619086534)"/><circle cx="792.0824786437834" cy="173.36855549963676" r="1.5331016514885656" fill="rgba(89, 243, 255, 0.3472111984119195)"/><circle cx="31.43076497398596" cy="40.896897597466484" r="1.7564230192126509" fill="rgba(89, 243, 255, 0.11181225645074724)"/><circle cx="211.57832884584326" cy="259.48654728361265" r="1.7318141474843078" fill="rgba(89, 243, 255, 0.11670523201122565)"/><circle cx="88.19673305570319" cy="4.434554458949924" r="0.8896704960395523" fill="rgba(89, 243, 255, 0.21568143853183144)"/><circle cx="99.92994302893017" cy="271.7836659702009" r="1.8019595188056552" fill="rgba(89, 243, 255, 0.19379538629943074)"/><circle cx="90.28338895148326" cy="111.22075134835544" r="0.9339478754086853" fill="rgba(89, 243, 255, 0.31328741882366284)"/><circle cx="210.81365507372797" cy="229.92172876741287" r="0.7692056160541727" fill="rgba(89, 243, 255, 0.5394843760467691)"/><circle cx="473.3709676412655" cy="10.349703220449523" r="0.6085803807613753" fill="rgba(89, 243, 255, 0.5179097271089198)"/><circle cx="343.80594845173584" cy="426.25152220873895" r="1.6094369523680871" fill="rgba(89, 243, 255, 0.5260791887084005)"/><circle cx="41.789094405841" cy="61.08167553358644" r="1.9953735141314088" fill="rgba(89, 243, 255, 0.1728884322704575)"/><circle cx="34.591466732188" cy="384.98303665228923" r="0.9216589200489197" fill="rgba(89, 243, 255, 0.13442660284569743)"/><circle cx="157.40608127133447" cy="180.36462330649027" r="1.6373615126459569" fill="rgba(89, 243, 255, 0.22547504266832766)"/><circle cx="351.3600298399865" cy="228.19385075714436" r="1.0191704620215187" fill="rgba(89, 243, 255, 0.3855687317184847)"/><circle cx="628.9985671334005" cy="424.3633209489646" r="1.8550192486192012" fill="rgba(89, 243, 255, 0.3204479814875776)"/><circle cx="683.4535886241623" cy="152.4970464873803" r="0.7567397334927151" fill="rgba(89, 243, 255, 0.4279721650706815)"/><circle cx="453.0100929725844" cy="58.652888430950256" r="1.3669870735793936" fill="rgba(89, 243, 255, 0.42994264975847596)"/><circle cx="159.7994835055701" cy="291.0359453710474" r="0.9364778153621098" fill="rgba(89, 243, 255, 0.31406295952960306)"/><circle cx="701.453044484116" cy="303.40147017088884" r="0.6482275130430482" fill="rgba(89, 243, 255, 0.5363928089665884)"/><circle cx="15.038562911461462" cy="263.1354495553157" r="0.9597556360786778" fill="rgba(89, 243, 255, 0.3585515006561195)"/><circle cx="247.0536727823692" cy="174.17110158935049" r="1.8001877567653004" fill="rgba(89, 243, 255, 0.4026622617665129)"/><circle cx="148.92925348971636" cy="80.14132601906968" r="1.657562872180962" fill="rgba(89, 243, 255, 0.5418160939058586)"/><circle cx="527.3036535941025" cy="195.38048103377272" r="1.805512684394323" fill="rgba(89, 243, 255, 0.29436286818676893)"/><circle cx="403.2203898920745" cy="167.05735125508232" r="0.7776168483092285" fill="rgba(89, 243, 255, 0.48452236087333267)"/>
    <!-- Specific Content -->
    
  <defs>
    <linearGradient id="grad-gold" x1="0%" y1="0%" x2="100%" y2="100%">
      <stop offset="0%" stop-color="#f59e0b" />
      <stop offset="100%" stop-color="#ea580c" />
    </linearGradient>
  </defs>
  
  <!-- Hero Section Abstract -->
  <rect x="40" y="40" width="720" height="220" rx="20" fill="rgba(255,255,255,0.02)" stroke="rgba(255,255,255,0.06)"/>
  <rect x="40" y="40" width="720" height="220" rx="20" fill="url(#grad-gold)" opacity="0.1" filter="url(#glow)"/>
  <circle cx="400" cy="150" r="100" fill="url(#grad-gold)" opacity="0.2" filter="url(#glow)"/>
  <path d="M 350 260 L 400 120 L 450 260 Z" fill="rgba(255,255,255,0.1)"/>
  
  <rect x="300" y="120" width="200" height="24" rx="12" fill="#fff" opacity="0.9"/>
  <rect x="350" y="160" width="100" height="12" rx="6" fill="rgba(255,255,255,0.6)"/>
  
  <!-- Cards -->
  <rect x="40" y="280" width="220" height="130" rx="16" fill="rgba(255,255,255,0.03)" stroke="rgba(255,255,255,0.08)"/>
  <rect x="60" y="300" width="80" height="80" rx="12" fill="url(#grad-gold)" opacity="0.8"/>
  <rect x="160" y="320" width="80" height="10" rx="5" fill="rgba(255,255,255,0.4)"/>
  <rect x="160" y="340" width="60" height="10" rx="5" fill="rgba(255,255,255,0.2)"/>

  <rect x="290" y="280" width="220" height="130" rx="16" fill="rgba(255,255,255,0.03)" stroke="rgba(255,255,255,0.08)"/>
  <rect x="310" y="300" width="80" height="80" rx="12" fill="url(#grad-primary)" opacity="0.8"/>
  
  <rect x="540" y="280" width="220" height="130" rx="16" fill="rgba(255,255,255,0.03)" stroke="rgba(255,255,255,0.08)"/>
  <rect x="560" y="300" width="80" height="80" rx="12" fill="url(#grad-accent)" opacity="0.8"/>

  </svg>