<svg width="800" height="450" viewBox="0 0 800 450" xmlns="http://www.w3.org/2000/svg">
    
  <defs>
    <linearGradient id="grad-bg" x1="0%" y1="0%" x2="100%" y2="100%">
      <stop offset="0%" stop-color="#081127" />
      <stop offset="100%" stop-color="#020617" />
    </linearGradient>
    <linearGradient id="grad-primary" x1="0%" y1="0%" x2="100%" y2="100%">
      <stop offset="0%" stop-color="#3aa0ff" />
      <stop offset="100%" stop-color="#0f8ff8" />
    </linearGradient>
    <linearGradient id="grad-accent" x1="0%" y1="0%" x2="100%" y2="100%">
      <stop offset="0%" stop-color="#59f3ff" />
      <stop offset="100%" stop-color="#0ea5e9" />
    </linearGradient>
    <linearGradient id="grad-purple" x1="0%" y1="0%" x2="100%" y2="100%">
      <stop offset="0%" stop-color="#c084fc" />
      <stop offset="100%" stop-color="#7c3aed" />
    </linearGradient>
    <linearGradient id="grad-emerald" x1="0%" y1="0%" x2="100%" y2="100%">
      <stop offset="0%" stop-color="#34d399" />
      <stop offset="100%" stop-color="#059669" />
    </linearGradient>
    <filter id="glow">
      <feGaussianBlur stdDeviation="12" result="coloredBlur"/>
      <feMerge>
        <feMergeNode in="coloredBlur"/>
        <feMergeNode in="SourceGraphic"/>
      </feMerge>
    </filter>
    <filter id="glow-sm">
      <feGaussianBlur stdDeviation="4" result="coloredBlur"/>
      <feMerge>
        <feMergeNode in="coloredBlur"/>
        <feMergeNode in="SourceGraphic"/>
      </feMerge>
    </filter>
  </defs>

    <!-- Base dark background with slight radial highlight -->
    <rect width="800" height="450" fill="url(#grad-bg)" />
    <circle cx="400" cy="225" r="300" fill="url(#grad-primary)" opacity="0.05" filter="url(#glow)"/>
    <line x1="0" y1="0" x2="0" y2="450" stroke="rgba(255,255,255,0.015)" stroke-width="1"/><line x1="40" y1="0" x2="40" y2="450" stroke="rgba(255,255,255,0.015)" stroke-width="1"/><line x1="80" y1="0" x2="80" y2="450" stroke="rgba(255,255,255,0.015)" stroke-width="1"/><line x1="120" y1="0" x2="120" y2="450" stroke="rgba(255,255,255,0.015)" stroke-width="1"/><line x1="160" y1="0" x2="160" y2="450" stroke="rgba(255,255,255,0.015)" stroke-width="1"/><line x1="200" y1="0" x2="200" y2="450" stroke="rgba(255,255,255,0.015)" stroke-width="1"/><line x1="240" y1="0" x2="240" y2="450" stroke="rgba(255,255,255,0.015)" stroke-width="1"/><line x1="280" y1="0" x2="280" y2="450" stroke="rgba(255,255,255,0.015)" stroke-width="1"/><line x1="320" y1="0" x2="320" y2="450" stroke="rgba(255,255,255,0.015)" stroke-width="1"/><line x1="360" y1="0" x2="360" y2="450" stroke="rgba(255,255,255,0.015)" stroke-width="1"/><line x1="400" y1="0" x2="400" y2="450" stroke="rgba(255,255,255,0.015)" stroke-width="1"/><line x1="440" y1="0" x2="440" y2="450" stroke="rgba(255,255,255,0.015)" stroke-width="1"/><line x1="480" y1="0" x2="480" y2="450" stroke="rgba(255,255,255,0.015)" stroke-width="1"/><line x1="520" y1="0" x2="520" y2="450" stroke="rgba(255,255,255,0.015)" stroke-width="1"/><line x1="560" y1="0" x2="560" y2="450" stroke="rgba(255,255,255,0.015)" stroke-width="1"/><line x1="600" y1="0" x2="600" y2="450" stroke="rgba(255,255,255,0.015)" stroke-width="1"/><line x1="640" y1="0" x2="640" y2="450" stroke="rgba(255,255,255,0.015)" stroke-width="1"/><line x1="680" y1="0" x2="680" y2="450" stroke="rgba(255,255,255,0.015)" stroke-width="1"/><line x1="720" y1="0" x2="720" y2="450" stroke="rgba(255,255,255,0.015)" stroke-width="1"/><line x1="760" y1="0" x2="760" y2="450" stroke="rgba(255,255,255,0.015)" stroke-width="1"/><line x1="800" y1="0" x2="800" y2="450" stroke="rgba(255,255,255,0.015)" stroke-width="1"/><line x1="0" y1="0" x2="800" y2="0" stroke="rgba(255,255,255,0.015)" stroke-width="1"/><line x1="0" y1="40" x2="800" y2="40" stroke="rgba(255,255,255,0.015)" stroke-width="1"/><line x1="0" y1="80" x2="800" y2="80" stroke="rgba(255,255,255,0.015)" stroke-width="1"/><line x1="0" y1="120" x2="800" y2="120" stroke="rgba(255,255,255,0.015)" stroke-width="1"/><line x1="0" y1="160" x2="800" y2="160" stroke="rgba(255,255,255,0.015)" stroke-width="1"/><line x1="0" y1="200" x2="800" y2="200" stroke="rgba(255,255,255,0.015)" stroke-width="1"/><line x1="0" y1="240" x2="800" y2="240" stroke="rgba(255,255,255,0.015)" stroke-width="1"/><line x1="0" y1="280" x2="800" y2="280" stroke="rgba(255,255,255,0.015)" stroke-width="1"/><line x1="0" y1="320" x2="800" y2="320" stroke="rgba(255,255,255,0.015)" stroke-width="1"/><line x1="0" y1="360" x2="800" y2="360" stroke="rgba(255,255,255,0.015)" stroke-width="1"/><line x1="0" y1="400" x2="800" y2="400" stroke="rgba(255,255,255,0.015)" stroke-width="1"/><line x1="0" y1="440" x2="800" y2="440" stroke="rgba(255,255,255,0.015)" stroke-width="1"/>
    <circle cx="52.33285218322106" cy="403.94267712871033" r="0.8930669508872036" fill="rgba(89, 243, 255, 0.5270985416276658)"/><circle cx="285.0974807553085" cy="446.00589493296144" r="0.7659522079990466" fill="rgba(89, 243, 255, 0.16663769175774948)"/><circle cx="630.7972694384874" cy="406.9279101352615" r="1.655469164896827" fill="rgba(89, 243, 255, 0.26601833498526795)"/><circle cx="422.6725665655243" cy="404.2564389666292" r="1.6612830715300833" fill="rgba(89, 243, 255, 0.22865128416672956)"/><circle cx="413.14726019469623" cy="195.04072675705092" r="1.8170826505199877" fill="rgba(89, 243, 255, 0.12197477349263511)"/><circle cx="277.8506947238254" cy="119.68644758990746" r="1.7426044556263423" fill="rgba(89, 243, 255, 0.3736536925883246)"/><circle cx="624.0686058037606" cy="284.01556751097013" r="0.5576398558670913" fill="rgba(89, 243, 255, 0.34331926294014214)"/><circle cx="107.32749369123766" cy="423.954017064064" r="1.1346592450161634" fill="rgba(89, 243, 255, 0.36308382204733036)"/><circle cx="663.1547208287224" cy="30.746337115108513" r="1.1528365608324873" fill="rgba(89, 243, 255, 0.5676852564765066)"/><circle cx="405.0321584608369" cy="434.58398227589515" r="0.5628716024402887" fill="rgba(89, 243, 255, 0.48947857797918126)"/><circle cx="377.69600937594544" cy="73.73862435400136" r="1.0152076530023437" fill="rgba(89, 243, 255, 0.5317890785282311)"/><circle cx="396.77905590337963" cy="423.64473888306793" r="1.488223103331543" fill="rgba(89, 243, 255, 0.33050076879509005)"/><circle cx="281.5013426252921" cy="412.6609563223549" r="1.2995386519252103" fill="rgba(89, 243, 255, 0.43751283922919515)"/><circle cx="794.7100501342684" cy="406.27729526363436" r="1.3327103122958177" fill="rgba(89, 243, 255, 0.1572093400328344)"/><circle cx="706.4478342528477" cy="341.0877892706036" r="1.0395375164618592" fill="rgba(89, 243, 255, 0.5205729536000541)"/><circle cx="204.84598085336305" cy="367.0554903880921" r="0.7781164186342938" fill="rgba(89, 243, 255, 0.3978522421682714)"/><circle cx="186.16685791618224" cy="159.85028991330762" r="0.6804923711046563" fill="rgba(89, 243, 255, 0.22559241159733193)"/><circle cx="585.8885668154494" cy="407.5401545591328" r="1.440257487487504" fill="rgba(89, 243, 255, 0.5300022487380383)"/><circle cx="463.5976702104756" cy="346.71770911136366" r="1.757785713165915" fill="rgba(89, 243, 255, 0.16573284840911076)"/><circle cx="594.9920927806968" cy="423.09794972984236" r="1.778692111088491" fill="rgba(89, 243, 255, 0.428995913960858)"/><circle cx="9.813637069747472" cy="291.9456330919192" r="1.5396126054855341" fill="rgba(89, 243, 255, 0.3428284536990668)"/><circle cx="778.4065440968906" cy="53.62479374406546" r="1.4322594054186308" fill="rgba(89, 243, 255, 0.42799113692141677)"/><circle cx="291.17139795799926" cy="285.9937733956774" r="1.7266900866066992" fill="rgba(89, 243, 255, 0.365436348519219)"/><circle cx="584.3367503044366" cy="110.60941898472872" r="0.6098090270613696" fill="rgba(89, 243, 255, 0.2866574556921061)"/><circle cx="31.853416232443976" cy="269.584847728919" r="1.1119341815459702" fill="rgba(89, 243, 255, 0.483067441423913)"/><circle cx="395.19088947123555" cy="119.43184600355156" r="0.7936841954455708" fill="rgba(89, 243, 255, 0.5421308384480873)"/><circle cx="407.00772497767446" cy="95.27878782065889" r="0.7066328390311493" fill="rgba(89, 243, 255, 0.12220017420568977)"/><circle cx="367.0626988342384" cy="223.79027038475874" r="1.5985370920436797" fill="rgba(89, 243, 255, 0.2380402749867582)"/><circle cx="140.66541822080137" cy="233.02334195904407" r="1.2183438225498604" fill="rgba(89, 243, 255, 0.3060630078285338)"/><circle cx="511.28708739610414" cy="146.3443600636435" r="1.6948039945288222" fill="rgba(89, 243, 255, 0.5344694183343579)"/>
    <!-- Specific Content -->
    
  <!-- Left Panel: Candlesticks -->
  <rect x="40" y="40" width="460" height="370" rx="16" fill="rgba(255,255,255,0.02)" stroke="rgba(255,255,255,0.06)"/>
  
  <!-- Candlestick 1 -->
  <line x1="100" y1="120" x2="100" y2="220" stroke="url(#grad-emerald)" stroke-width="2"/>
  <rect x="90" y="150" width="20" height="40" rx="4" fill="url(#grad-emerald)" filter="url(#glow-sm)"/>
  <!-- Candlestick 2 -->
  <line x1="160" y1="180" x2="160" y2="280" stroke="#f43f5e" stroke-width="2"/>
  <rect x="150" y="200" width="20" height="60" rx="4" fill="#f43f5e"/>
  <!-- Candlestick 3 -->
  <line x1="220" y1="100" x2="220" y2="240" stroke="url(#grad-emerald)" stroke-width="2"/>
  <rect x="210" y="120" width="20" height="80" rx="4" fill="url(#grad-emerald)" filter="url(#glow-sm)"/>
  <!-- Candlestick 4 -->
  <line x1="280" y1="80" x2="280" y2="180" stroke="url(#grad-emerald)" stroke-width="2"/>
  <rect x="270" y="90" width="20" height="50" rx="4" fill="url(#grad-emerald)" filter="url(#glow-sm)"/>
  <!-- Candlestick 5 -->
  <line x1="340" y1="140" x2="340" y2="220" stroke="#f43f5e" stroke-width="2"/>
  <rect x="330" y="150" width="20" height="40" rx="4" fill="#f43f5e"/>
  <!-- Candlestick 6 -->
  <line x1="400" y1="100" x2="400" y2="200" stroke="url(#grad-emerald)" stroke-width="2"/>
  <rect x="390" y="140" width="20" height="40" rx="4" fill="url(#grad-emerald)" filter="url(#glow-sm)"/>

  <!-- Trendline -->
  <path d="M 80 250 L 200 280 L 300 200 L 420 160" fill="none" stroke="url(#grad-primary)" stroke-width="4" stroke-dasharray="6 6" filter="url(#glow)"/>

  <!-- Right Panel: AI Nodes -->
  <rect x="520" y="40" width="240" height="370" rx="16" fill="rgba(255,255,255,0.03)" stroke="rgba(255,255,255,0.08)"/>
  <line x1="640" y1="100" x2="580" y2="180" stroke="rgba(255,255,255,0.2)" stroke-width="2"/>
  <line x1="640" y1="100" x2="700" y2="180" stroke="rgba(255,255,255,0.2)" stroke-width="2"/>
  <line x1="580" y1="180" x2="640" y2="260" stroke="rgba(255,255,255,0.2)" stroke-width="2"/>
  <line x1="700" y1="180" x2="640" y2="260" stroke="rgba(255,255,255,0.2)" stroke-width="2"/>
  
  <circle cx="640" cy="100" r="16" fill="url(#grad-accent)" filter="url(#glow)"/>
  <circle cx="580" cy="180" r="12" fill="url(#grad-primary)"/>
  <circle cx="700" cy="180" r="12" fill="url(#grad-primary)"/>
  <circle cx="640" cy="260" r="20" fill="url(#grad-purple)" filter="url(#glow)"/>

  <rect x="560" y="320" width="160" height="10" rx="5" fill="rgba(255,255,255,0.4)"/>
  <rect x="580" y="350" width="120" height="8" rx="4" fill="rgba(255,255,255,0.2)"/>

  </svg>