<svg width="800" height="450" viewBox="0 0 800 450" xmlns="http://www.w3.org/2000/svg">
    
  <defs>
    <linearGradient id="grad-bg" x1="0%" y1="0%" x2="100%" y2="100%">
      <stop offset="0%" stop-color="#081127" />
      <stop offset="100%" stop-color="#020617" />
    </linearGradient>
    <linearGradient id="grad-primary" x1="0%" y1="0%" x2="100%" y2="100%">
      <stop offset="0%" stop-color="#3aa0ff" />
      <stop offset="100%" stop-color="#0f8ff8" />
    </linearGradient>
    <linearGradient id="grad-accent" x1="0%" y1="0%" x2="100%" y2="100%">
      <stop offset="0%" stop-color="#59f3ff" />
      <stop offset="100%" stop-color="#0ea5e9" />
    </linearGradient>
    <linearGradient id="grad-purple" x1="0%" y1="0%" x2="100%" y2="100%">
      <stop offset="0%" stop-color="#c084fc" />
      <stop offset="100%" stop-color="#7c3aed" />
    </linearGradient>
    <linearGradient id="grad-emerald" x1="0%" y1="0%" x2="100%" y2="100%">
      <stop offset="0%" stop-color="#34d399" />
      <stop offset="100%" stop-color="#059669" />
    </linearGradient>
    <filter id="glow">
      <feGaussianBlur stdDeviation="12" result="coloredBlur"/>
      <feMerge>
        <feMergeNode in="coloredBlur"/>
        <feMergeNode in="SourceGraphic"/>
      </feMerge>
    </filter>
    <filter id="glow-sm">
      <feGaussianBlur stdDeviation="4" result="coloredBlur"/>
      <feMerge>
        <feMergeNode in="coloredBlur"/>
        <feMergeNode in="SourceGraphic"/>
      </feMerge>
    </filter>
  </defs>

    <!-- Base dark background with slight radial highlight -->
    <rect width="800" height="450" fill="url(#grad-bg)" />
    <circle cx="400" cy="225" r="300" fill="url(#grad-primary)" opacity="0.05" filter="url(#glow)"/>
    <line x1="0" y1="0" x2="0" y2="450" stroke="rgba(255,255,255,0.015)" stroke-width="1"/><line x1="40" y1="0" x2="40" y2="450" stroke="rgba(255,255,255,0.015)" stroke-width="1"/><line x1="80" y1="0" x2="80" y2="450" stroke="rgba(255,255,255,0.015)" stroke-width="1"/><line x1="120" y1="0" x2="120" y2="450" stroke="rgba(255,255,255,0.015)" stroke-width="1"/><line x1="160" y1="0" x2="160" y2="450" stroke="rgba(255,255,255,0.015)" stroke-width="1"/><line x1="200" y1="0" x2="200" y2="450" stroke="rgba(255,255,255,0.015)" stroke-width="1"/><line x1="240" y1="0" x2="240" y2="450" stroke="rgba(255,255,255,0.015)" stroke-width="1"/><line x1="280" y1="0" x2="280" y2="450" stroke="rgba(255,255,255,0.015)" stroke-width="1"/><line x1="320" y1="0" x2="320" y2="450" stroke="rgba(255,255,255,0.015)" stroke-width="1"/><line x1="360" y1="0" x2="360" y2="450" stroke="rgba(255,255,255,0.015)" stroke-width="1"/><line x1="400" y1="0" x2="400" y2="450" stroke="rgba(255,255,255,0.015)" stroke-width="1"/><line x1="440" y1="0" x2="440" y2="450" stroke="rgba(255,255,255,0.015)" stroke-width="1"/><line x1="480" y1="0" x2="480" y2="450" stroke="rgba(255,255,255,0.015)" stroke-width="1"/><line x1="520" y1="0" x2="520" y2="450" stroke="rgba(255,255,255,0.015)" stroke-width="1"/><line x1="560" y1="0" x2="560" y2="450" stroke="rgba(255,255,255,0.015)" stroke-width="1"/><line x1="600" y1="0" x2="600" y2="450" stroke="rgba(255,255,255,0.015)" stroke-width="1"/><line x1="640" y1="0" x2="640" y2="450" stroke="rgba(255,255,255,0.015)" stroke-width="1"/><line x1="680" y1="0" x2="680" y2="450" stroke="rgba(255,255,255,0.015)" stroke-width="1"/><line x1="720" y1="0" x2="720" y2="450" stroke="rgba(255,255,255,0.015)" stroke-width="1"/><line x1="760" y1="0" x2="760" y2="450" stroke="rgba(255,255,255,0.015)" stroke-width="1"/><line x1="800" y1="0" x2="800" y2="450" stroke="rgba(255,255,255,0.015)" stroke-width="1"/><line x1="0" y1="0" x2="800" y2="0" stroke="rgba(255,255,255,0.015)" stroke-width="1"/><line x1="0" y1="40" x2="800" y2="40" stroke="rgba(255,255,255,0.015)" stroke-width="1"/><line x1="0" y1="80" x2="800" y2="80" stroke="rgba(255,255,255,0.015)" stroke-width="1"/><line x1="0" y1="120" x2="800" y2="120" stroke="rgba(255,255,255,0.015)" stroke-width="1"/><line x1="0" y1="160" x2="800" y2="160" stroke="rgba(255,255,255,0.015)" stroke-width="1"/><line x1="0" y1="200" x2="800" y2="200" stroke="rgba(255,255,255,0.015)" stroke-width="1"/><line x1="0" y1="240" x2="800" y2="240" stroke="rgba(255,255,255,0.015)" stroke-width="1"/><line x1="0" y1="280" x2="800" y2="280" stroke="rgba(255,255,255,0.015)" stroke-width="1"/><line x1="0" y1="320" x2="800" y2="320" stroke="rgba(255,255,255,0.015)" stroke-width="1"/><line x1="0" y1="360" x2="800" y2="360" stroke="rgba(255,255,255,0.015)" stroke-width="1"/><line x1="0" y1="400" x2="800" y2="400" stroke="rgba(255,255,255,0.015)" stroke-width="1"/><line x1="0" y1="440" x2="800" y2="440" stroke="rgba(255,255,255,0.015)" stroke-width="1"/>
    <circle cx="709.3835333064997" cy="31.993644535462863" r="1.9558360045352496" fill="rgba(89, 243, 255, 0.3326299914549625)"/><circle cx="761.3374221337862" cy="383.76227818079724" r="1.1884578516871989" fill="rgba(89, 243, 255, 0.486832678953373)"/><circle cx="771.9348141637817" cy="237.75171119106864" r="1.311322267771933" fill="rgba(89, 243, 255, 0.35600990982417946)"/><circle cx="153.14027979881092" cy="334.2849995479575" r="1.3484966381666146" fill="rgba(89, 243, 255, 0.22757524468653847)"/><circle cx="564.2015833726244" cy="385.60719868772776" r="1.2209937122079215" fill="rgba(89, 243, 255, 0.20710761475293185)"/><circle cx="647.1675406409126" cy="135.673304563953" r="0.9430606581580137" fill="rgba(89, 243, 255, 0.3742916668909765)"/><circle cx="447.77691689656524" cy="10.939926982283755" r="1.7199736861091839" fill="rgba(89, 243, 255, 0.3388184471731549)"/><circle cx="690.7173601748248" cy="444.0571023813842" r="1.2225923576357838" fill="rgba(89, 243, 255, 0.5028474859790641)"/><circle cx="424.23040375599027" cy="15.355982147267987" r="1.1540553948347414" fill="rgba(89, 243, 255, 0.14356196180884165)"/><circle cx="623.7936729344066" cy="37.08367298913126" r="1.036435282580221" fill="rgba(89, 243, 255, 0.15725105567183198)"/><circle cx="332.0312666198703" cy="312.05006230766935" r="1.893946745064267" fill="rgba(89, 243, 255, 0.5899090320601211)"/><circle cx="229.07661143518806" cy="152.27586661874315" r="1.1649677929723157" fill="rgba(89, 243, 255, 0.12514065313429615)"/><circle cx="667.9567963305376" cy="449.78355380023277" r="0.9069559158541141" fill="rgba(89, 243, 255, 0.15491320196017036)"/><circle cx="524.7524255917758" cy="5.734708867374594" r="1.0830517610260484" fill="rgba(89, 243, 255, 0.5640282125546292)"/><circle cx="151.52528226647544" cy="371.989080360966" r="0.8926628163660255" fill="rgba(89, 243, 255, 0.5870771416453927)"/><circle cx="561.8105924313826" cy="245.8969163589856" r="1.6397589407573212" fill="rgba(89, 243, 255, 0.44349452860727046)"/><circle cx="321.2694211222848" cy="254.34719414164906" r="1.4184812456922424" fill="rgba(89, 243, 255, 0.4633335657561256)"/><circle cx="236.52815128391555" cy="27.98327173317663" r="0.7662479419984988" fill="rgba(89, 243, 255, 0.3448024972809677)"/><circle cx="165.24853210559573" cy="30.13596387792905" r="1.6486069944872233" fill="rgba(89, 243, 255, 0.37492805427805664)"/><circle cx="88.94904430877429" cy="66.30424478762379" r="0.968226515330902" fill="rgba(89, 243, 255, 0.5623085574447774)"/><circle cx="25.01255696954061" cy="385.4639723860225" r="1.1954327192428018" fill="rgba(89, 243, 255, 0.31564440511979774)"/><circle cx="63.53664866761992" cy="68.40300121148529" r="1.9846062324134808" fill="rgba(89, 243, 255, 0.1637287486096312)"/><circle cx="185.42021761470158" cy="364.56702037513344" r="0.5391108896204634" fill="rgba(89, 243, 255, 0.17759308406371957)"/><circle cx="6.206524713894446" cy="198.69403880486465" r="1.6302059330696101" fill="rgba(89, 243, 255, 0.38865964015217314)"/><circle cx="784.567704854463" cy="16.13077188901776" r="1.877252834746159" fill="rgba(89, 243, 255, 0.34292317737144795)"/><circle cx="670.6904657007278" cy="192.22360860504935" r="1.496568871068108" fill="rgba(89, 243, 255, 0.12629475533532744)"/><circle cx="593.3780768938515" cy="293.6490525595613" r="0.5609206672786091" fill="rgba(89, 243, 255, 0.11533053319248945)"/><circle cx="468.0538745512569" cy="443.66432359233556" r="1.9672070581711991" fill="rgba(89, 243, 255, 0.1959400066904076)"/><circle cx="33.30638476234906" cy="3.237331225045015" r="0.7304772447098038" fill="rgba(89, 243, 255, 0.34341442299379354)"/><circle cx="23.668037505806794" cy="68.6719193410704" r="1.1930290470619007" fill="rgba(89, 243, 255, 0.5856105842538338)"/>
    <!-- Specific Content -->
    
  <!-- Search Header -->
  <rect x="50" y="50" width="700" height="60" rx="30" fill="rgba(255,255,255,0.04)" stroke="rgba(255,255,255,0.08)"/>
  <circle cx="90" cy="80" r="10" fill="none" stroke="rgba(255,255,255,0.4)" stroke-width="3"/>
  <line x1="97" y1="87" x2="105" y2="95" stroke="rgba(255,255,255,0.4)" stroke-width="3" stroke-linecap="round"/>
  <rect x="130" y="74" width="200" height="12" rx="6" fill="rgba(255,255,255,0.15)"/>

  <!-- Book Grid -->
  <g transform="translate(50, 150)">
    <rect x="0" y="0" width="160" height="240" rx="12" fill="url(#grad-emerald)" opacity="0.8" filter="url(#glow)"/>
    <rect x="0" y="0" width="160" height="240" rx="12" fill="rgba(255,255,255,0.1)" stroke="rgba(255,255,255,0.2)"/>
    <rect x="20" y="40" width="120" height="16" rx="4" fill="#fff" opacity="0.9"/>
    <rect x="20" y="70" width="80" height="10" rx="5" fill="#fff" opacity="0.6"/>
    
    <rect x="180" y="0" width="160" height="240" rx="12" fill="rgba(255,255,255,0.03)" stroke="rgba(255,255,255,0.08)"/>
    <rect x="200" y="40" width="120" height="16" rx="4" fill="rgba(255,255,255,0.2)"/>
    <rect x="200" y="70" width="80" height="10" rx="5" fill="rgba(255,255,255,0.1)"/>

    <rect x="360" y="0" width="160" height="240" rx="12" fill="rgba(255,255,255,0.03)" stroke="rgba(255,255,255,0.08)"/>
    <rect x="380" y="40" width="120" height="16" rx="4" fill="rgba(255,255,255,0.2)"/>
    
    <rect x="540" y="0" width="160" height="240" rx="12" fill="rgba(255,255,255,0.03)" stroke="rgba(255,255,255,0.08)"/>
    <rect x="560" y="40" width="120" height="16" rx="4" fill="rgba(255,255,255,0.2)"/>
  </g>

  </svg>