<svg width="800" height="450" viewBox="0 0 800 450" xmlns="http://www.w3.org/2000/svg">
    
  <defs>
    <linearGradient id="grad-bg" x1="0%" y1="0%" x2="100%" y2="100%">
      <stop offset="0%" stop-color="#081127" />
      <stop offset="100%" stop-color="#020617" />
    </linearGradient>
    <linearGradient id="grad-primary" x1="0%" y1="0%" x2="100%" y2="100%">
      <stop offset="0%" stop-color="#3aa0ff" />
      <stop offset="100%" stop-color="#0f8ff8" />
    </linearGradient>
    <linearGradient id="grad-accent" x1="0%" y1="0%" x2="100%" y2="100%">
      <stop offset="0%" stop-color="#59f3ff" />
      <stop offset="100%" stop-color="#0ea5e9" />
    </linearGradient>
    <linearGradient id="grad-purple" x1="0%" y1="0%" x2="100%" y2="100%">
      <stop offset="0%" stop-color="#c084fc" />
      <stop offset="100%" stop-color="#7c3aed" />
    </linearGradient>
    <linearGradient id="grad-emerald" x1="0%" y1="0%" x2="100%" y2="100%">
      <stop offset="0%" stop-color="#34d399" />
      <stop offset="100%" stop-color="#059669" />
    </linearGradient>
    <filter id="glow">
      <feGaussianBlur stdDeviation="12" result="coloredBlur"/>
      <feMerge>
        <feMergeNode in="coloredBlur"/>
        <feMergeNode in="SourceGraphic"/>
      </feMerge>
    </filter>
    <filter id="glow-sm">
      <feGaussianBlur stdDeviation="4" result="coloredBlur"/>
      <feMerge>
        <feMergeNode in="coloredBlur"/>
        <feMergeNode in="SourceGraphic"/>
      </feMerge>
    </filter>
  </defs>

    <!-- Base dark background with slight radial highlight -->
    <rect width="800" height="450" fill="url(#grad-bg)" />
    <circle cx="400" cy="225" r="300" fill="url(#grad-primary)" opacity="0.05" filter="url(#glow)"/>
    <line x1="0" y1="0" x2="0" y2="450" stroke="rgba(255,255,255,0.015)" stroke-width="1"/><line x1="40" y1="0" x2="40" y2="450" stroke="rgba(255,255,255,0.015)" stroke-width="1"/><line x1="80" y1="0" x2="80" y2="450" stroke="rgba(255,255,255,0.015)" stroke-width="1"/><line x1="120" y1="0" x2="120" y2="450" stroke="rgba(255,255,255,0.015)" stroke-width="1"/><line x1="160" y1="0" x2="160" y2="450" stroke="rgba(255,255,255,0.015)" stroke-width="1"/><line x1="200" y1="0" x2="200" y2="450" stroke="rgba(255,255,255,0.015)" stroke-width="1"/><line x1="240" y1="0" x2="240" y2="450" stroke="rgba(255,255,255,0.015)" stroke-width="1"/><line x1="280" y1="0" x2="280" y2="450" stroke="rgba(255,255,255,0.015)" stroke-width="1"/><line x1="320" y1="0" x2="320" y2="450" stroke="rgba(255,255,255,0.015)" stroke-width="1"/><line x1="360" y1="0" x2="360" y2="450" stroke="rgba(255,255,255,0.015)" stroke-width="1"/><line x1="400" y1="0" x2="400" y2="450" stroke="rgba(255,255,255,0.015)" stroke-width="1"/><line x1="440" y1="0" x2="440" y2="450" stroke="rgba(255,255,255,0.015)" stroke-width="1"/><line x1="480" y1="0" x2="480" y2="450" stroke="rgba(255,255,255,0.015)" stroke-width="1"/><line x1="520" y1="0" x2="520" y2="450" stroke="rgba(255,255,255,0.015)" stroke-width="1"/><line x1="560" y1="0" x2="560" y2="450" stroke="rgba(255,255,255,0.015)" stroke-width="1"/><line x1="600" y1="0" x2="600" y2="450" stroke="rgba(255,255,255,0.015)" stroke-width="1"/><line x1="640" y1="0" x2="640" y2="450" stroke="rgba(255,255,255,0.015)" stroke-width="1"/><line x1="680" y1="0" x2="680" y2="450" stroke="rgba(255,255,255,0.015)" stroke-width="1"/><line x1="720" y1="0" x2="720" y2="450" stroke="rgba(255,255,255,0.015)" stroke-width="1"/><line x1="760" y1="0" x2="760" y2="450" stroke="rgba(255,255,255,0.015)" stroke-width="1"/><line x1="800" y1="0" x2="800" y2="450" stroke="rgba(255,255,255,0.015)" stroke-width="1"/><line x1="0" y1="0" x2="800" y2="0" stroke="rgba(255,255,255,0.015)" stroke-width="1"/><line x1="0" y1="40" x2="800" y2="40" stroke="rgba(255,255,255,0.015)" stroke-width="1"/><line x1="0" y1="80" x2="800" y2="80" stroke="rgba(255,255,255,0.015)" stroke-width="1"/><line x1="0" y1="120" x2="800" y2="120" stroke="rgba(255,255,255,0.015)" stroke-width="1"/><line x1="0" y1="160" x2="800" y2="160" stroke="rgba(255,255,255,0.015)" stroke-width="1"/><line x1="0" y1="200" x2="800" y2="200" stroke="rgba(255,255,255,0.015)" stroke-width="1"/><line x1="0" y1="240" x2="800" y2="240" stroke="rgba(255,255,255,0.015)" stroke-width="1"/><line x1="0" y1="280" x2="800" y2="280" stroke="rgba(255,255,255,0.015)" stroke-width="1"/><line x1="0" y1="320" x2="800" y2="320" stroke="rgba(255,255,255,0.015)" stroke-width="1"/><line x1="0" y1="360" x2="800" y2="360" stroke="rgba(255,255,255,0.015)" stroke-width="1"/><line x1="0" y1="400" x2="800" y2="400" stroke="rgba(255,255,255,0.015)" stroke-width="1"/><line x1="0" y1="440" x2="800" y2="440" stroke="rgba(255,255,255,0.015)" stroke-width="1"/>
    <circle cx="283.75949030165765" cy="193.80697921324136" r="1.7764124740094653" fill="rgba(89, 243, 255, 0.28973039619088325)"/><circle cx="704.3006276988912" cy="19.268750405705703" r="0.5480871598492064" fill="rgba(89, 243, 255, 0.3253276970267468)"/><circle cx="466.5720873155539" cy="357.35887047768904" r="1.348279859009784" fill="rgba(89, 243, 255, 0.4118632892486902)"/><circle cx="714.7404595728194" cy="232.33509047267964" r="0.854692165792304" fill="rgba(89, 243, 255, 0.5571987583050675)"/><circle cx="511.9517763352036" cy="433.69290669204963" r="1.6924896754313905" fill="rgba(89, 243, 255, 0.580951833308607)"/><circle cx="680.1139727599292" cy="303.06067847739286" r="0.9200663323125124" fill="rgba(89, 243, 255, 0.44543301794155266)"/><circle cx="719.9447695369224" cy="183.62329129936504" r="1.7536684916472605" fill="rgba(89, 243, 255, 0.37066238017103326)"/><circle cx="394.37638570471466" cy="215.28866304625012" r="1.8293907465423445" fill="rgba(89, 243, 255, 0.5199795312302762)"/><circle cx="637.8467537375649" cy="177.48249469562703" r="0.5880725960633074" fill="rgba(89, 243, 255, 0.10773468055357041)"/><circle cx="546.3586457649093" cy="419.91866458822534" r="0.8439560196271045" fill="rgba(89, 243, 255, 0.3645618513092278)"/><circle cx="237.4815904436188" cy="408.4058660027558" r="0.9326755254287163" fill="rgba(89, 243, 255, 0.3605477657410766)"/><circle cx="537.16215168434" cy="220.61229895518633" r="0.6591050270461755" fill="rgba(89, 243, 255, 0.511769968563167)"/><circle cx="491.8544130635755" cy="145.55909059178802" r="0.7124413111631736" fill="rgba(89, 243, 255, 0.18651693788572624)"/><circle cx="254.61390966628326" cy="31.69370239793381" r="0.733981858402399" fill="rgba(89, 243, 255, 0.36616422778158564)"/><circle cx="459.17675393853995" cy="410.2943990787587" r="0.6981945668825575" fill="rgba(89, 243, 255, 0.18818733077778796)"/><circle cx="376.5840010548793" cy="378.38188172584927" r="1.4322196586390668" fill="rgba(89, 243, 255, 0.4063303131056072)"/><circle cx="676.5680822166441" cy="418.6229447707507" r="1.8524326946098095" fill="rgba(89, 243, 255, 0.425869779610621)"/><circle cx="601.9331457423835" cy="70.22180145967313" r="1.8492473371990195" fill="rgba(89, 243, 255, 0.19179228154998398)"/><circle cx="671.0922353048186" cy="416.18330312516554" r="1.8944861606076064" fill="rgba(89, 243, 255, 0.17046968610079108)"/><circle cx="147.66901980030303" cy="326.4348524136591" r="1.192637362110093" fill="rgba(89, 243, 255, 0.3407956544272809)"/><circle cx="64.77166182343251" cy="210.80983190527542" r="1.7256466204837098" fill="rgba(89, 243, 255, 0.3612935982253228)"/><circle cx="708.6771689877884" cy="394.0476998764866" r="1.2447869465296273" fill="rgba(89, 243, 255, 0.32155749386804633)"/><circle cx="658.9797842030732" cy="336.6015733036005" r="1.4319261815516375" fill="rgba(89, 243, 255, 0.47230954294328087)"/><circle cx="325.93634496374" cy="194.69300789348085" r="1.455195184945054" fill="rgba(89, 243, 255, 0.23896712914169696)"/><circle cx="139.39512100898685" cy="10.631655791160377" r="1.2552123664339516" fill="rgba(89, 243, 255, 0.2186449961539099)"/><circle cx="367.95871626200983" cy="427.3034545312084" r="1.6382378225124832" fill="rgba(89, 243, 255, 0.3779576627114085)"/><circle cx="760.7143161814328" cy="162.87216056172576" r="1.5362147905914967" fill="rgba(89, 243, 255, 0.41712211997610116)"/><circle cx="560.8427651183464" cy="216.70893872730133" r="1.633675164517216" fill="rgba(89, 243, 255, 0.4914621142597704)"/><circle cx="29.39920443873394" cy="410.9698440706473" r="1.6006416721175385" fill="rgba(89, 243, 255, 0.26751176301490664)"/><circle cx="405.44599878710113" cy="203.32462131863363" r="1.4990415595835265" fill="rgba(89, 243, 255, 0.2014072845576186)"/>
    <!-- Specific Content -->
    
  <rect x="40" y="40" width="180" height="370" rx="16" fill="rgba(255,255,255,0.02)" stroke="rgba(255,255,255,0.06)"/>
  <rect x="60" y="70" width="140" height="24" rx="6" fill="url(#grad-primary)" opacity="0.85" filter="url(#glow-sm)"/>
  <rect x="60" y="120" width="100" height="12" rx="4" fill="rgba(255,255,255,0.1)"/>
  <rect x="60" y="150" width="120" height="12" rx="4" fill="rgba(255,255,255,0.1)"/>
  <rect x="60" y="180" width="90" height="12" rx="4" fill="rgba(255,255,255,0.1)"/>

  <rect x="240" y="40" width="520" height="200" rx="16" fill="rgba(255,255,255,0.03)" stroke="rgba(255,255,255,0.08)"/>
  <path d="M 240 240 Q 400 300 500 150 T 760 120 L 760 240 L 240 240 Z" fill="url(#grad-accent)" opacity="0.1"/>
  <path d="M 240 200 Q 400 300 500 150 T 760 120" fill="none" stroke="url(#grad-accent)" stroke-width="4" filter="url(#glow)"/>
  <circle cx="500" cy="150" r="6" fill="#fff" filter="url(#glow-sm)"/>
  <circle cx="760" cy="120" r="6" fill="#fff" filter="url(#glow-sm)"/>

  <rect x="240" y="260" width="250" height="150" rx="16" fill="rgba(255,255,255,0.02)" stroke="rgba(255,255,255,0.05)"/>
  <circle cx="365" cy="335" r="45" fill="none" stroke="rgba(255,255,255,0.05)" stroke-width="12"/>
  <circle cx="365" cy="335" r="45" fill="none" stroke="url(#grad-primary)" stroke-width="12" stroke-dasharray="200 400" filter="url(#glow)"/>

  <rect x="510" y="260" width="250" height="150" rx="16" fill="rgba(255,255,255,0.02)" stroke="rgba(255,255,255,0.05)"/>
  <rect x="540" y="290" width="190" height="12" rx="4" fill="rgba(255,255,255,0.1)"/>
  <rect x="540" y="325" width="150" height="12" rx="4" fill="rgba(255,255,255,0.1)"/>
  <rect x="540" y="360" width="170" height="12" rx="4" fill="rgba(255,255,255,0.1)"/>

  </svg>